<svg width="780" height="100" viewBox="0 0 780 100" xmlns="http://www.w3.org/2000/svg">
    <defs>
        <marker id="arr" viewBox="0 0 10 10" refX="8" refY="5" markerWidth="5" markerHeight="5" orient="auto">
            <path d="M2 1L8 5L2 9" fill="none" stroke="#666" stroke-width="1.5" stroke-linecap="round" />
        </marker>
    </defs>
    <rect x="4" y="18" width="88" height="54" rx="8" fill="#E8F5E9" stroke="#43A047" stroke-width="1.2" />
    <text x="48" y="41" text-anchor="middle" font-family="monospace" font-size="11" fill="#1B5E20"
        font-weight="bold">Extract</text>
    <text x="48" y="57" text-anchor="middle" font-family="monospace" font-size="9" fill="#2E7D32">3 CSV sources</text>
    <line x1="92" y1="45" x2="108" y2="45" stroke="#666" stroke-width="1.2" marker-end="url(#arr)" />
    <rect x="108" y="18" width="88" height="54" rx="8" fill="#FFF8E1" stroke="#FB8C00" stroke-width="1.2" />
    <text x="152" y="41" text-anchor="middle" font-family="monospace" font-size="11" fill="#E65100"
        font-weight="bold">Validate</text>
    <text x="152" y="57" text-anchor="middle" font-family="monospace" font-size="9" fill="#BF360C">16 checks -
        scored</text>
    <line x1="196" y1="45" x2="212" y2="45" stroke="#666" stroke-width="1.2" marker-end="url(#arr)" />
    <rect x="212" y="18" width="88" height="54" rx="8" fill="#E3F2FD" stroke="#1E88E5" stroke-width="1.2" />
    <text x="256" y="41" text-anchor="middle" font-family="monospace" font-size="11" fill="#0D47A1"
        font-weight="bold">Transform</text>
    <text x="256" y="57" text-anchor="middle" font-family="monospace" font-size="9" fill="#1565C0">21 steps -
        lineage</text>
    <line x1="300" y1="45" x2="316" y2="45" stroke="#666" stroke-width="1.2" marker-end="url(#arr)" />
    <rect x="316" y="18" width="88" height="54" rx="8" fill="#EDE7F6" stroke="#7E57C2" stroke-width="1.2" />
    <text x="360" y="41" text-anchor="middle" font-family="monospace" font-size="11" fill="#4527A0"
        font-weight="bold">Load</text>
    <text x="360" y="57" text-anchor="middle" font-family="monospace" font-size="9" fill="#512DA8">PostgreSQL
        upsert</text>
    <line x1="404" y1="45" x2="420" y2="45" stroke="#666" stroke-width="1.2" marker-end="url(#arr)" />
    <rect x="420" y="18" width="88" height="54" rx="8" fill="#FCE4EC" stroke="#E91E63" stroke-width="1.2" />
    <text x="464" y="41" text-anchor="middle" font-family="monospace" font-size="11" fill="#880E4F"
        font-weight="bold">Anomaly</text>
    <text x="464" y="57" text-anchor="middle" font-family="monospace" font-size="9" fill="#AD1457">IQR - z-score -
        Groq</text>
    <line x1="508" y1="45" x2="524" y2="45" stroke="#666" stroke-width="1.2" marker-end="url(#arr)" />
    <rect x="524" y="18" width="88" height="54" rx="8" fill="#E8F5E9" stroke="#43A047" stroke-width="1.2" />
    <text x="568" y="41" text-anchor="middle" font-family="monospace" font-size="11" fill="#1B5E20"
        font-weight="bold">Report</text>
    <text x="568" y="57" text-anchor="middle" font-family="monospace" font-size="9" fill="#2E7D32">Jinja2 HTML</text>
    <line x1="612" y1="45" x2="628" y2="45" stroke="#666" stroke-width="1.2" marker-end="url(#arr)" />
    <rect x="628" y="18" width="148" height="54" rx="8" fill="#FFF3E0" stroke="#FB8C00" stroke-width="1.2" />
    <text x="702" y="41" text-anchor="middle" font-family="monospace" font-size="11" fill="#E65100"
        font-weight="bold">Schedule + Monitor</text>
    <text x="702" y="57" text-anchor="middle" font-family="monospace" font-size="9" fill="#BF360C">APScheduler -
        Streamlit</text>
    <text x="390" y="92" text-anchor="middle" font-family="monospace" font-size="9" fill="#aaa">Full industry-grade
        pipeline -- Rs.0 to run</text>
</svg>